<svg aria-roledescription="sequence" role="graphics-document document" viewBox="-50 -50 2175 2086" style="max-width: 2175px; background-color: white;" xmlns:xlink="http://www.w3.org/1999/xlink" xmlns="http://www.w3.org/2000/svg" width="100%" id="my-svg"><g><rect class="rect" height="2025" width="1121" stroke="rgb(0,0,0, 0.5)" fill="transparent" y="0" x="954"/><text style="text-anchor: middle; font-size: 16px; font-weight: 400;" class="text" alignment-baseline="central" dominant-baseline="central" y="9" x="1514.5"><tspan dy="0" x="1514.5">System</tspan></text></g><g><rect class="rect" height="2025" width="560" stroke="rgb(0,0,0, 0.5)" fill="transparent" y="0" x="234"/><text style="text-anchor: middle; font-size: 16px; font-weight: 400;" class="text" alignment-baseline="central" dominant-baseline="central" y="9" x="514"><tspan dy="0" x="514">Users</tspan></text></g><g><rect class="actor" ry="3" rx="3" height="65" width="150" stroke="#666" fill="#eaeaea" y="1950" x="1920"/><text style="text-anchor: middle; font-size: 16px; font-weight: 400;" class="actor" alignment-baseline="central" dominant-baseline="central" y="1982.5" x="1995"><tspan dy="0" x="1995">Indexer</tspan></text></g><g><rect class="actor" ry="3" rx="3" height="65" width="150" stroke="#666" fill="#eaeaea" y="1950" x="1720"/><text style="text-anchor: middle; font-size: 16px; font-weight: 400;" class="actor" alignment-baseline="central" dominant-baseline="central" y="1982.5" x="1795"><tspan dy="0" x="1795">Gateway</tspan></text></g><g><rect class="actor" ry="3" rx="3" height="65" width="150" stroke="#666" fill="#eaeaea" y="1950" x="1520"/><text style="text-anchor: middle; font-size: 16px; font-weight: 400;" class="actor" alignment-baseline="central" dominant-baseline="central" y="1982.5" x="1595"><tspan dy="0" x="1595">Audit</tspan></text></g><g><rect class="actor" ry="3" rx="3" height="65" width="150" stroke="#666" fill="#eaeaea" y="1950" x="1320"/><text style="text-anchor: middle; font-size: 16px; font-weight: 400;" class="actor" alignment-baseline="central" dominant-baseline="central" y="1982.5" x="1395"><tspan dy="0" x="1395">Reports</tspan></text></g><g><rect class="actor" ry="3" rx="3" height="65" width="150" stroke="#666" fill="#eaeaea" y="1950" x="959"/><text style="text-anchor: middle; font-size: 16px; font-weight: 400;" class="actor" alignment-baseline="central" dominant-baseline="central" y="1982.5" x="1034"><tspan dy="0" x="1034">Blockchain</tspan></text></g><g><rect class="actor" ry="3" rx="3" height="65" width="150" stroke="#666" fill="#eaeaea" y="1950" x="0"/><text style="text-anchor: middle; font-size: 16px; font-weight: 400;" class="actor" alignment-baseline="central" dominant-baseline="central" y="1982.5" x="75"><tspan dy="0" x="75">Government</tspan></text></g><g><line stroke="#999" stroke-width="0.5px" class="200" y2="1950" x2="1995" y1="33" x1="1995" id="actor8"/><g id="root-8"><rect class="actor" ry="3" rx="3" height="65" width="150" stroke="#666" fill="#eaeaea" y="28" x="1920"/><text style="text-anchor: middle; font-size: 16px; font-weight: 400;" class="actor" alignment-baseline="central" dominant-baseline="central" y="60.5" x="1995"><tspan dy="0" x="1995">Indexer</tspan></text></g></g><g><line stroke="#999" stroke-width="0.5px" class="200" y2="1950" x2="1795" y1="33" x1="1795" id="actor7"/><g id="root-7"><rect class="actor" ry="3" rx="3" height="65" width="150" stroke="#666" fill="#eaeaea" y="28" x="1720"/><text style="text-anchor: middle; font-size: 16px; font-weight: 400;" class="actor" alignment-baseline="central" dominant-baseline="central" y="60.5" x="1795"><tspan dy="0" x="1795">Gateway</tspan></text></g></g><g><line stroke="#999" stroke-width="0.5px" class="200" y2="1950" x2="1595" y1="33" x1="1595" id="actor6"/><g id="root-6"><rect class="actor" ry="3" rx="3" height="65" width="150" stroke="#666" fill="#eaeaea" y="28" x="1520"/><text style="text-anchor: middle; font-size: 16px; font-weight: 400;" class="actor" alignment-baseline="central" dominant-baseline="central" y="60.5" x="1595"><tspan dy="0" x="1595">Audit</tspan></text></g></g><g><line stroke="#999" stroke-width="0.5px" class="200" y2="1950" x2="1395" y1="33" x1="1395" id="actor5"/><g id="root-5"><rect class="actor" ry="3" rx="3" height="65" width="150" stroke="#666" fill="#eaeaea" y="28" x="1320"/><text style="text-anchor: middle; font-size: 16px; font-weight: 400;" class="actor" alignment-baseline="central" dominant-baseline="central" y="60.5" x="1395"><tspan dy="0" x="1395">Reports</tspan></text></g></g><g><line stroke="#999" stroke-width="0.5px" class="200" y2="1950" x2="1034" y1="33" x1="1034" id="actor4"/><g id="root-4"><rect class="actor" ry="3" rx="3" height="65" width="150" stroke="#666" fill="#eaeaea" y="28" x="959"/><text style="text-anchor: middle; font-size: 16px; font-weight: 400;" class="actor" alignment-baseline="central" dominant-baseline="central" y="60.5" x="1034"><tspan dy="0" x="1034">Blockchain</tspan></text></g></g><g><line stroke="#999" stroke-width="0.5px" class="200" y2="1950" x2="75" y1="33" x1="75" id="actor0"/><g id="root-0"><rect class="actor" ry="3" rx="3" height="65" width="150" stroke="#666" fill="#eaeaea" y="28" x="0"/><text style="text-anchor: middle; font-size: 16px; font-weight: 400;" class="actor" alignment-baseline="central" dominant-baseline="central" y="60.5" x="75"><tspan dy="0" x="75">Government</tspan></text></g></g><style>#my-svg{font-family:"trebuchet ms",verdana,arial,sans-serif;font-size:16px;fill:#333;}#my-svg .error-icon{fill:#552222;}#my-svg .error-text{fill:#552222;stroke:#552222;}#my-svg .edge-thickness-normal{stroke-width:2px;}#my-svg .edge-thickness-thick{stroke-width:3.5px;}#my-svg .edge-pattern-solid{stroke-dasharray:0;}#my-svg .edge-pattern-dashed{stroke-dasharray:3;}#my-svg .edge-pattern-dotted{stroke-dasharray:2;}#my-svg .marker{fill:#333333;stroke:#333333;}#my-svg .marker.cross{stroke:#333333;}#my-svg svg{font-family:"trebuchet ms",verdana,arial,sans-serif;font-size:16px;}#my-svg .actor{stroke:hsl(259.6261682243, 59.7765363128%, 87.9019607843%);fill:#ECECFF;}#my-svg text.actor&gt;tspan{fill:black;stroke:none;}#my-svg .actor-line{stroke:grey;}#my-svg .messageLine0{stroke-width:1.5;stroke-dasharray:none;stroke:#333;}#my-svg .messageLine1{stroke-width:1.5;stroke-dasharray:2,2;stroke:#333;}#my-svg #arrowhead path{fill:#333;stroke:#333;}#my-svg .sequenceNumber{fill:white;}#my-svg #sequencenumber{fill:#333;}#my-svg #crosshead path{fill:#333;stroke:#333;}#my-svg .messageText{fill:#333;stroke:none;}#my-svg .labelBox{stroke:hsl(259.6261682243, 59.7765363128%, 87.9019607843%);fill:#ECECFF;}#my-svg .labelText,#my-svg .labelText&gt;tspan{fill:black;stroke:none;}#my-svg .loopText,#my-svg .loopText&gt;tspan{fill:black;stroke:none;}#my-svg .loopLine{stroke-width:2px;stroke-dasharray:2,2;stroke:hsl(259.6261682243, 59.7765363128%, 87.9019607843%);fill:hsl(259.6261682243, 59.7765363128%, 87.9019607843%);}#my-svg .note{stroke:#aaaa33;fill:#fff5ad;}#my-svg .noteText,#my-svg .noteText&gt;tspan{fill:black;stroke:none;}#my-svg .activation0{fill:#f4f4f4;stroke:#666;}#my-svg .activation1{fill:#f4f4f4;stroke:#666;}#my-svg .activation2{fill:#f4f4f4;stroke:#666;}#my-svg .actorPopupMenu{position:absolute;}#my-svg .actorPopupMenuPanel{position:absolute;fill:#ECECFF;box-shadow:0px 8px 16px 0px rgba(0,0,0,0.2);filter:drop-shadow(3px 5px 2px rgb(0 0 0 / 0.4));}#my-svg .actor-man line{stroke:hsl(259.6261682243, 59.7765363128%, 87.9019607843%);fill:#ECECFF;}#my-svg .actor-man circle,#my-svg line{stroke:hsl(259.6261682243, 59.7765363128%, 87.9019607843%);fill:#ECECFF;stroke-width:2px;}#my-svg :root{--mermaid-font-family:"trebuchet ms",verdana,arial,sans-serif;}</style><g/><defs><symbol height="24" width="24" id="computer"><path d="M2 2v13h20v-13h-20zm18 11h-16v-9h16v9zm-10.228 6l.466-1h3.524l.467 1h-4.457zm14.228 3h-24l2-6h2.104l-1.33 4h18.45l-1.297-4h2.073l2 6zm-5-10h-14v-7h14v7z" transform="scale(.5)"/></symbol></defs><defs><symbol clip-rule="evenodd" fill-rule="evenodd" id="database"><path d="M12.258.001l.256.004.255.005.253.008.251.01.249.012.247.015.246.016.242.019.241.02.239.023.236.024.233.027.231.028.229.031.225.032.223.034.22.036.217.038.214.04.211.041.208.043.205.045.201.046.198.048.194.05.191.051.187.053.183.054.18.056.175.057.172.059.168.06.163.061.16.063.155.064.15.066.074.033.073.033.071.034.07.034.069.035.068.035.067.035.066.035.064.036.064.036.062.036.06.036.06.037.058.037.058.037.055.038.055.038.053.038.052.038.051.039.05.039.048.039.047.039.045.04.044.04.043.04.041.04.04.041.039.041.037.041.036.041.034.041.033.042.032.042.03.042.029.042.027.042.026.043.024.043.023.043.021.043.02.043.018.044.017.043.015.044.013.044.012.044.011.045.009.044.007.045.006.045.004.045.002.045.001.045v17l-.001.045-.002.045-.004.045-.006.045-.007.045-.009.044-.011.045-.012.044-.013.044-.015.044-.017.043-.018.044-.02.043-.021.043-.023.043-.024.043-.026.043-.027.042-.029.042-.03.042-.032.042-.033.042-.034.041-.036.041-.037.041-.039.041-.04.041-.041.04-.043.04-.044.04-.045.04-.047.039-.048.039-.05.039-.051.039-.052.038-.053.038-.055.038-.055.038-.058.037-.058.037-.06.037-.06.036-.062.036-.064.036-.064.036-.066.035-.067.035-.068.035-.069.035-.07.034-.071.034-.073.033-.074.033-.15.066-.155.064-.16.063-.163.061-.168.06-.172.059-.175.057-.18.056-.183.054-.187.053-.191.051-.194.05-.198.048-.201.046-.205.045-.208.043-.211.041-.214.04-.217.038-.22.036-.223.034-.225.032-.229.031-.231.028-.233.027-.236.024-.239.023-.241.02-.242.019-.246.016-.247.015-.249.012-.251.01-.253.008-.255.005-.256.004-.258.001-.258-.001-.256-.004-.255-.005-.253-.008-.251-.01-.249-.012-.247-.015-.245-.016-.243-.019-.241-.02-.238-.023-.236-.024-.234-.027-.231-.028-.228-.031-.226-.032-.223-.034-.22-.036-.217-.038-.214-.04-.211-.041-.208-.043-.204-.045-.201-.046-.198-.048-.195-.05-.19-.051-.187-.053-.184-.054-.179-.056-.176-.057-.172-.059-.167-.06-.164-.061-.159-.063-.155-.064-.151-.066-.074-.033-.072-.033-.072-.034-.07-.034-.069-.035-.068-.035-.067-.035-.066-.035-.064-.036-.063-.036-.062-.036-.061-.036-.06-.037-.058-.037-.057-.037-.056-.038-.055-.038-.053-.038-.052-.038-.051-.039-.049-.039-.049-.039-.046-.039-.046-.04-.044-.04-.043-.04-.041-.04-.04-.041-.039-.041-.037-.041-.036-.041-.034-.041-.033-.042-.032-.042-.03-.042-.029-.042-.027-.042-.026-.043-.024-.043-.023-.043-.021-.043-.02-.043-.018-.044-.017-.043-.015-.044-.013-.044-.012-.044-.011-.045-.009-.044-.007-.045-.006-.045-.004-.045-.002-.045-.001-.045v-17l.001-.045.002-.045.004-.045.006-.045.007-.045.009-.044.011-.045.012-.044.013-.044.015-.044.017-.043.018-.044.02-.043.021-.043.023-.043.024-.043.026-.043.027-.042.029-.042.03-.042.032-.042.033-.042.034-.041.036-.041.037-.041.039-.041.04-.041.041-.04.043-.04.044-.04.046-.04.046-.039.049-.039.049-.039.051-.039.052-.038.053-.038.055-.038.056-.038.057-.037.058-.037.06-.037.061-.036.062-.036.063-.036.064-.036.066-.035.067-.035.068-.035.069-.035.07-.034.072-.034.072-.033.074-.033.151-.066.155-.064.159-.063.164-.061.167-.06.172-.059.176-.057.179-.056.184-.054.187-.053.19-.051.195-.05.198-.048.201-.046.204-.045.208-.043.211-.041.214-.04.217-.038.22-.036.223-.034.226-.032.228-.031.231-.028.234-.027.236-.024.238-.023.241-.02.243-.019.245-.016.247-.015.249-.012.251-.01.253-.008.255-.005.256-.004.258-.001.258.001zm-9.258 20.499v.01l.001.021.003.021.004.022.005.021.006.022.007.022.009.023.01.022.011.023.012.023.013.023.015.023.016.024.017.023.018.024.019.024.021.024.022.025.023.024.024.025.052.049.056.05.061.051.066.051.07.051.075.051.079.052.084.052.088.052.092.052.097.052.102.051.105.052.11.052.114.051.119.051.123.051.127.05.131.05.135.05.139.048.144.049.147.047.152.047.155.047.16.045.163.045.167.043.171.043.176.041.178.041.183.039.187.039.19.037.194.035.197.035.202.033.204.031.209.03.212.029.216.027.219.025.222.024.226.021.23.02.233.018.236.016.24.015.243.012.246.01.249.008.253.005.256.004.259.001.26-.001.257-.004.254-.005.25-.008.247-.011.244-.012.241-.014.237-.016.233-.018.231-.021.226-.021.224-.024.22-.026.216-.027.212-.028.21-.031.205-.031.202-.034.198-.034.194-.036.191-.037.187-.039.183-.04.179-.04.175-.042.172-.043.168-.044.163-.045.16-.046.155-.046.152-.047.148-.048.143-.049.139-.049.136-.05.131-.05.126-.05.123-.051.118-.052.114-.051.11-.052.106-.052.101-.052.096-.052.092-.052.088-.053.083-.051.079-.052.074-.052.07-.051.065-.051.06-.051.056-.05.051-.05.023-.024.023-.025.021-.024.02-.024.019-.024.018-.024.017-.024.015-.023.014-.024.013-.023.012-.023.01-.023.01-.022.008-.022.006-.022.006-.022.004-.022.004-.021.001-.021.001-.021v-4.127l-.077.055-.08.053-.083.054-.085.053-.087.052-.09.052-.093.051-.095.05-.097.05-.1.049-.102.049-.105.048-.106.047-.109.047-.111.046-.114.045-.115.045-.118.044-.12.043-.122.042-.124.042-.126.041-.128.04-.13.04-.132.038-.134.038-.135.037-.138.037-.139.035-.142.035-.143.034-.144.033-.147.032-.148.031-.15.03-.151.03-.153.029-.154.027-.156.027-.158.026-.159.025-.161.024-.162.023-.163.022-.165.021-.166.02-.167.019-.169.018-.169.017-.171.016-.173.015-.173.014-.175.013-.175.012-.177.011-.178.01-.179.008-.179.008-.181.006-.182.005-.182.004-.184.003-.184.002h-.37l-.184-.002-.184-.003-.182-.004-.182-.005-.181-.006-.179-.008-.179-.008-.178-.01-.176-.011-.176-.012-.175-.013-.173-.014-.172-.015-.171-.016-.17-.017-.169-.018-.167-.019-.166-.02-.165-.021-.163-.022-.162-.023-.161-.024-.159-.025-.157-.026-.156-.027-.155-.027-.153-.029-.151-.03-.15-.03-.148-.031-.146-.032-.145-.033-.143-.034-.141-.035-.14-.035-.137-.037-.136-.037-.134-.038-.132-.038-.13-.04-.128-.04-.126-.041-.124-.042-.122-.042-.12-.044-.117-.043-.116-.045-.113-.045-.112-.046-.109-.047-.106-.047-.105-.048-.102-.049-.1-.049-.097-.05-.095-.05-.093-.052-.09-.051-.087-.052-.085-.053-.083-.054-.08-.054-.077-.054v4.127zm0-5.654v.011l.001.021.003.021.004.021.005.022.006.022.007.022.009.022.01.022.011.023.012.023.013.023.015.024.016.023.017.024.018.024.019.024.021.024.022.024.023.025.024.024.052.05.056.05.061.05.066.051.07.051.075.052.079.051.084.052.088.052.092.052.097.052.102.052.105.052.11.051.114.051.119.052.123.05.127.051.131.05.135.049.139.049.144.048.147.048.152.047.155.046.16.045.163.045.167.044.171.042.176.042.178.04.183.04.187.038.19.037.194.036.197.034.202.033.204.032.209.03.212.028.216.027.219.025.222.024.226.022.23.02.233.018.236.016.24.014.243.012.246.01.249.008.253.006.256.003.259.001.26-.001.257-.003.254-.006.25-.008.247-.01.244-.012.241-.015.237-.016.233-.018.231-.02.226-.022.224-.024.22-.025.216-.027.212-.029.21-.03.205-.032.202-.033.198-.035.194-.036.191-.037.187-.039.183-.039.179-.041.175-.042.172-.043.168-.044.163-.045.16-.045.155-.047.152-.047.148-.048.143-.048.139-.05.136-.049.131-.05.126-.051.123-.051.118-.051.114-.052.11-.052.106-.052.101-.052.096-.052.092-.052.088-.052.083-.052.079-.052.074-.051.07-.052.065-.051.06-.05.056-.051.051-.049.023-.025.023-.024.021-.025.02-.024.019-.024.018-.024.017-.024.015-.023.014-.023.013-.024.012-.022.01-.023.01-.023.008-.022.006-.022.006-.022.004-.021.004-.022.001-.021.001-.021v-4.139l-.077.054-.08.054-.083.054-.085.052-.087.053-.09.051-.093.051-.095.051-.097.05-.1.049-.102.049-.105.048-.106.047-.109.047-.111.046-.114.045-.115.044-.118.044-.12.044-.122.042-.124.042-.126.041-.128.04-.13.039-.132.039-.134.038-.135.037-.138.036-.139.036-.142.035-.143.033-.144.033-.147.033-.148.031-.15.03-.151.03-.153.028-.154.028-.156.027-.158.026-.159.025-.161.024-.162.023-.163.022-.165.021-.166.02-.167.019-.169.018-.169.017-.171.016-.173.015-.173.014-.175.013-.175.012-.177.011-.178.009-.179.009-.179.007-.181.007-.182.005-.182.004-.184.003-.184.002h-.37l-.184-.002-.184-.003-.182-.004-.182-.005-.181-.007-.179-.007-.179-.009-.178-.009-.176-.011-.176-.012-.175-.013-.173-.014-.172-.015-.171-.016-.17-.017-.169-.018-.167-.019-.166-.02-.165-.021-.163-.022-.162-.023-.161-.024-.159-.025-.157-.026-.156-.027-.155-.028-.153-.028-.151-.03-.15-.03-.148-.031-.146-.033-.145-.033-.143-.033-.141-.035-.14-.036-.137-.036-.136-.037-.134-.038-.132-.039-.13-.039-.128-.04-.126-.041-.124-.042-.122-.043-.12-.043-.117-.044-.116-.044-.113-.046-.112-.046-.109-.046-.106-.047-.105-.048-.102-.049-.1-.049-.097-.05-.095-.051-.093-.051-.09-.051-.087-.053-.085-.052-.083-.054-.08-.054-.077-.054v4.139zm0-5.666v.011l.001.02.003.022.004.021.005.022.006.021.007.022.009.023.01.022.011.023.012.023.013.023.015.023.016.024.017.024.018.023.019.024.021.025.022.024.023.024.024.025.052.05.056.05.061.05.066.051.07.051.075.052.079.051.084.052.088.052.092.052.097.052.102.052.105.051.11.052.114.051.119.051.123.051.127.05.131.05.135.05.139.049.144.048.147.048.152.047.155.046.16.045.163.045.167.043.171.043.176.042.178.04.183.04.187.038.19.037.194.036.197.034.202.033.204.032.209.03.212.028.216.027.219.025.222.024.226.021.23.02.233.018.236.017.24.014.243.012.246.01.249.008.253.006.256.003.259.001.26-.001.257-.003.254-.006.25-.008.247-.01.244-.013.241-.014.237-.016.233-.018.231-.02.226-.022.224-.024.22-.025.216-.027.212-.029.21-.03.205-.032.202-.033.198-.035.194-.036.191-.037.187-.039.183-.039.179-.041.175-.042.172-.043.168-.044.163-.045.16-.045.155-.047.152-.047.148-.048.143-.049.139-.049.136-.049.131-.051.126-.05.123-.051.118-.052.114-.051.11-.052.106-.052.101-.052.096-.052.092-.052.088-.052.083-.052.079-.052.074-.052.07-.051.065-.051.06-.051.056-.05.051-.049.023-.025.023-.025.021-.024.02-.024.019-.024.018-.024.017-.024.015-.023.014-.024.013-.023.012-.023.01-.022.01-.023.008-.022.006-.022.006-.022.004-.022.004-.021.001-.021.001-.021v-4.153l-.077.054-.08.054-.083.053-.085.053-.087.053-.09.051-.093.051-.095.051-.097.05-.1.049-.102.048-.105.048-.106.048-.109.046-.111.046-.114.046-.115.044-.118.044-.12.043-.122.043-.124.042-.126.041-.128.04-.13.039-.132.039-.134.038-.135.037-.138.036-.139.036-.142.034-.143.034-.144.033-.147.032-.148.032-.15.03-.151.03-.153.028-.154.028-.156.027-.158.026-.159.024-.161.024-.162.023-.163.023-.165.021-.166.02-.167.019-.169.018-.169.017-.171.016-.173.015-.173.014-.175.013-.175.012-.177.01-.178.01-.179.009-.179.007-.181.006-.182.006-.182.004-.184.003-.184.001-.185.001-.185-.001-.184-.001-.184-.003-.182-.004-.182-.006-.181-.006-.179-.007-.179-.009-.178-.01-.176-.01-.176-.012-.175-.013-.173-.014-.172-.015-.171-.016-.17-.017-.169-.018-.167-.019-.166-.02-.165-.021-.163-.023-.162-.023-.161-.024-.159-.024-.157-.026-.156-.027-.155-.028-.153-.028-.151-.03-.15-.03-.148-.032-.146-.032-.145-.033-.143-.034-.141-.034-.14-.036-.137-.036-.136-.037-.134-.038-.132-.039-.13-.039-.128-.041-.126-.041-.124-.041-.122-.043-.12-.043-.117-.044-.116-.044-.113-.046-.112-.046-.109-.046-.106-.048-.105-.048-.102-.048-.1-.05-.097-.049-.095-.051-.093-.051-.09-.052-.087-.052-.085-.053-.083-.053-.08-.054-.077-.054v4.153zm8.74-8.179l-.257.004-.254.005-.25.008-.247.011-.244.012-.241.014-.237.016-.233.018-.231.021-.226.022-.224.023-.22.026-.216.027-.212.028-.21.031-.205.032-.202.033-.198.034-.194.036-.191.038-.187.038-.183.04-.179.041-.175.042-.172.043-.168.043-.163.045-.16.046-.155.046-.152.048-.148.048-.143.048-.139.049-.136.05-.131.05-.126.051-.123.051-.118.051-.114.052-.11.052-.106.052-.101.052-.096.052-.092.052-.088.052-.083.052-.079.052-.074.051-.07.052-.065.051-.06.05-.056.05-.051.05-.023.025-.023.024-.021.024-.02.025-.019.024-.018.024-.017.023-.015.024-.014.023-.013.023-.012.023-.01.023-.01.022-.008.022-.006.023-.006.021-.004.022-.004.021-.001.021-.001.021.001.021.001.021.004.021.004.022.006.021.006.023.008.022.01.022.01.023.012.023.013.023.014.023.015.024.017.023.018.024.019.024.02.025.021.024.023.024.023.025.051.05.056.05.06.05.065.051.07.052.074.051.079.052.083.052.088.052.092.052.096.052.101.052.106.052.11.052.114.052.118.051.123.051.126.051.131.05.136.05.139.049.143.048.148.048.152.048.155.046.16.046.163.045.168.043.172.043.175.042.179.041.183.04.187.038.191.038.194.036.198.034.202.033.205.032.21.031.212.028.216.027.22.026.224.023.226.022.231.021.233.018.237.016.241.014.244.012.247.011.25.008.254.005.257.004.26.001.26-.001.257-.004.254-.005.25-.008.247-.011.244-.012.241-.014.237-.016.233-.018.231-.021.226-.022.224-.023.22-.026.216-.027.212-.028.21-.031.205-.032.202-.033.198-.034.194-.036.191-.038.187-.038.183-.04.179-.041.175-.042.172-.043.168-.043.163-.045.16-.046.155-.046.152-.048.148-.048.143-.048.139-.049.136-.05.131-.05.126-.051.123-.051.118-.051.114-.052.11-.052.106-.052.101-.052.096-.052.092-.052.088-.052.083-.052.079-.052.074-.051.07-.052.065-.051.06-.05.056-.05.051-.05.023-.025.023-.024.021-.024.02-.025.019-.024.018-.024.017-.023.015-.024.014-.023.013-.023.012-.023.01-.023.01-.022.008-.022.006-.023.006-.021.004-.022.004-.021.001-.021.001-.021-.001-.021-.001-.021-.004-.021-.004-.022-.006-.021-.006-.023-.008-.022-.01-.022-.01-.023-.012-.023-.013-.023-.014-.023-.015-.024-.017-.023-.018-.024-.019-.024-.02-.025-.021-.024-.023-.024-.023-.025-.051-.05-.056-.05-.06-.05-.065-.051-.07-.052-.074-.051-.079-.052-.083-.052-.088-.052-.092-.052-.096-.052-.101-.052-.106-.052-.11-.052-.114-.052-.118-.051-.123-.051-.126-.051-.131-.05-.136-.05-.139-.049-.143-.048-.148-.048-.152-.048-.155-.046-.16-.046-.163-.045-.168-.043-.172-.043-.175-.042-.179-.041-.183-.04-.187-.038-.191-.038-.194-.036-.198-.034-.202-.033-.205-.032-.21-.031-.212-.028-.216-.027-.22-.026-.224-.023-.226-.022-.231-.021-.233-.018-.237-.016-.241-.014-.244-.012-.247-.011-.25-.008-.254-.005-.257-.004-.26-.001-.26.001z" transform="scale(.5)"/></symbol></defs><defs><symbol height="24" width="24" id="clock"><path d="M12 2c5.514 0 10 4.486 10 10s-4.486 10-10 10-10-4.486-10-10 4.486-10 10-10zm0-2c-6.627 0-12 5.373-12 12s5.373 12 12 12 12-5.373 12-12-5.373-12-12-12zm5.848 12.459c.202.038.202.333.001.372-1.907.361-6.045 1.111-6.547 1.111-.719 0-1.301-.582-1.301-1.301 0-.512.77-5.447 1.125-7.445.034-.192.312-.181.343.014l.985 6.238 5.394 1.011z" transform="scale(.5)"/></symbol></defs><defs><marker orient="auto" markerHeight="12" markerWidth="12" markerUnits="userSpaceOnUse" refY="5" refX="7.9" id="arrowhead"><path d="M 0 0 L 10 5 L 0 10 z"/></marker></defs><defs><marker refY="4.5" refX="4" orient="auto" markerHeight="8" markerWidth="15" id="crosshead"><path style="stroke-dasharray: 0, 0;" d="M 1,2 L 6,7 M 6,2 L 1,7" stroke-width="1pt" stroke="#000000" fill="none"/></marker></defs><defs><marker orient="auto" markerHeight="28" markerWidth="20" refY="7" refX="15.5" id="filled-head"><path d="M 18,7 L9,13 L14,7 L9,1 Z"/></marker></defs><defs><marker orient="auto" markerHeight="40" markerWidth="60" refY="15" refX="15" id="sequencenumber"><circle r="6" cy="15" cx="15"/></marker></defs><g><line class="loopLine" y2="103" x2="1606" y1="103" x1="64"/><line class="loopLine" y2="403" x2="1606" y1="103" x1="1606"/><line class="loopLine" y2="403" x2="1606" y1="403" x1="64"/><line class="loopLine" y2="403" x2="64" y1="103" x1="64"/><line style="stroke-dasharray: 3, 3;" class="loopLine" y2="291" x2="1606" y1="291" x1="64"/><polygon class="labelBox" points="64,103 114,103 114,116 105.6,123 64,123"/><text style="font-size: 16px; font-weight: 400;" class="labelText" alignment-baseline="middle" dominant-baseline="middle" text-anchor="middle" y="116" x="89">par</text><text style="font-size: 16px; font-weight: 400;" class="loopText" text-anchor="middle" y="121" x="860"><tspan x="860">[Election preparations]</tspan></text></g><g/><g><line class="loopLine" y2="851" x2="1045" y1="851" x1="503"/><line class="loopLine" y2="1033" x2="1045" y1="851" x1="1045"/><line class="loopLine" y2="1033" x2="1045" y1="1033" x1="503"/><line class="loopLine" y2="1033" x2="503" y1="851" x1="503"/><line style="stroke-dasharray: 3, 3;" class="loopLine" y2="947" x2="1045" y1="947" x1="503"/><polygon class="labelBox" points="503,851 553,851 553,864 544.6,871 503,871"/><text style="font-size: 16px; font-weight: 400;" class="labelText" alignment-baseline="middle" dominant-baseline="middle" text-anchor="middle" y="864" x="528">alt</text><text style="font-size: 16px; font-weight: 400;" class="loopText" text-anchor="middle" y="869" x="799"><tspan x="799">[Has voted?]</tspan></text><text style="font-size: 16px; font-weight: 400;" class="loopText" text-anchor="middle" y="965" x="774">[Hasn't voted]</text></g><g><line class="loopLine" y2="1134" x2="1685" y1="1134" x1="950"/><line class="loopLine" y2="1386" x2="1685" y1="1134" x1="1685"/><line class="loopLine" y2="1386" x2="1685" y1="1386" x1="950"/><line class="loopLine" y2="1386" x2="950" y1="1134" x1="950"/><line style="stroke-dasharray: 3, 3;" class="loopLine" y2="1260" x2="1685" y1="1260" x1="950"/><polygon class="labelBox" points="950,1134 1000,1134 1000,1147 991.6,1154 950,1154"/><text style="font-size: 16px; font-weight: 400;" class="labelText" alignment-baseline="middle" dominant-baseline="middle" text-anchor="middle" y="1147" x="975">par</text><text style="font-size: 16px; font-weight: 400;" class="loopText" text-anchor="middle" y="1152" x="1342.5"><tspan x="1342.5">[System finalization]</tspan></text></g><g><line class="loopLine" y2="1089" x2="1695" y1="1089" x1="940"/><line class="loopLine" y2="1396" x2="1695" y1="1089" x1="1695"/><line class="loopLine" y2="1396" x2="1695" y1="1396" x1="940"/><line class="loopLine" y2="1396" x2="940" y1="1089" x1="940"/><polygon class="labelBox" points="940,1089 990,1089 990,1102 981.6,1109 940,1109"/><text style="font-size: 16px; font-weight: 400;" class="labelText" alignment-baseline="middle" dominant-baseline="middle" text-anchor="middle" y="1102" x="965">break</text><text style="font-size: 16px; font-weight: 400;" class="loopText" text-anchor="middle" y="1107" x="1342.5"><tspan x="1342.5">[when Voting period is over]</tspan></text></g><g><line class="loopLine" y2="413" x2="1806" y1="413" x1="64"/><line class="loopLine" y2="1406" x2="1806" y1="413" x1="1806"/><line class="loopLine" y2="1406" x2="1806" y1="1406" x1="64"/><line class="loopLine" y2="1406" x2="64" y1="413" x1="64"/><line style="stroke-dasharray: 3, 3;" class="loopLine" y2="555" x2="1806" y1="555" x1="64"/><polygon class="labelBox" points="64,413 114,413 114,426 105.6,433 64,433"/><text style="font-size: 16px; font-weight: 400;" class="labelText" alignment-baseline="middle" dominant-baseline="middle" text-anchor="middle" y="426" x="89">par</text><text style="font-size: 16px; font-weight: 400;" class="loopText" text-anchor="middle" y="431" x="960"><tspan x="960">[Voting process]</tspan></text></g><g><line class="loopLine" y2="1416" x2="2006" y1="1416" x1="303"/><line class="loopLine" y2="1930" x2="2006" y1="1416" x1="2006"/><line class="loopLine" y2="1930" x2="2006" y1="1930" x1="303"/><line class="loopLine" y2="1930" x2="303" y1="1416" x1="303"/><line style="stroke-dasharray: 3, 3;" class="loopLine" y2="1558" x2="2006" y1="1558" x1="303"/><polygon class="labelBox" points="303,1416 353,1416 353,1429 344.6,1436 303,1436"/><text style="font-size: 16px; font-weight: 400;" class="labelText" alignment-baseline="middle" dominant-baseline="middle" text-anchor="middle" y="1429" x="328">par</text><text style="font-size: 16px; font-weight: 400;" class="loopText" text-anchor="middle" y="1434" x="1179.5"><tspan x="1179.5">[Voting concluded]</tspan></text></g><line stroke="#999" stroke-width="0.5px" class="200" y2="1950" x2="314" y1="108" x1="314" id="actor1"/><g class="actor-man"><line y2="73" x2="314" y1="53" x1="314" id="actor-man-torso1"/><line y2="61" x2="332" y1="61" x1="296" id="actor-man-arms1"/><line y2="73" x2="314" y1="88" x1="296"/><line y2="88" x2="330" y1="73" x1="314"/><circle height="65" width="150" r="15" cy="38" cx="314"/><text style="text-anchor: middle; font-size: 16px; font-weight: 400;" class="actor" alignment-baseline="central" dominant-baseline="central" y="95.5" x="314"><tspan dy="0" x="314">Election Official</tspan></text></g><line stroke="#999" stroke-width="0.5px" class="200" y2="1950" x2="514" y1="108" x1="514" id="actor2"/><g class="actor-man"><line y2="73" x2="514" y1="53" x1="514" id="actor-man-torso2"/><line y2="61" x2="532" y1="61" x1="496" id="actor-man-arms2"/><line y2="73" x2="514" y1="88" x1="496"/><line y2="88" x2="530" y1="73" x1="514"/><circle height="65" width="150" r="15" cy="38" cx="514"/><text style="text-anchor: middle; font-size: 16px; font-weight: 400;" class="actor" alignment-baseline="central" dominant-baseline="central" y="95.5" x="514"><tspan dy="0" x="514">Voter</tspan></text></g><line stroke="#999" stroke-width="0.5px" class="200" y2="1950" x2="714" y1="108" x1="714" id="actor3"/><g class="actor-man"><line y2="73" x2="714" y1="53" x1="714" id="actor-man-torso3"/><line y2="61" x2="732" y1="61" x1="696" id="actor-man-arms3"/><line y2="73" x2="714" y1="88" x1="696"/><line y2="88" x2="730" y1="73" x1="714"/><circle height="65" width="150" r="15" cy="38" cx="714"/><text style="text-anchor: middle; font-size: 16px; font-weight: 400;" class="actor" alignment-baseline="central" dominant-baseline="central" y="95.5" x="714"><tspan dy="0" x="714">System Admin</tspan></text></g><text style="font-size: 16px; font-weight: 400;" dy="1em" class="messageText" alignment-baseline="middle" dominant-baseline="middle" text-anchor="middle" y="153" x="193">provide election schedule</text><line style="fill: none;" marker-end="url(#filled-head)" stroke="none" stroke-width="2" class="messageLine0" y2="184" x2="310" y1="184" x1="76"/><text style="font-size: 16px; font-weight: 400;" dy="1em" class="messageText" alignment-baseline="middle" dominant-baseline="middle" text-anchor="middle" y="199" x="873">build genesis &amp; assign roles to EO's</text><line style="fill: none;" marker-end="url(#filled-head)" stroke="none" stroke-width="2" class="messageLine0" y2="230" x2="1030" y1="230" x1="715"/><text style="font-size: 16px; font-weight: 400;" dy="1em" class="messageText" alignment-baseline="middle" dominant-baseline="middle" text-anchor="middle" y="245" x="673">set up voting period</text><line style="fill: none;" marker-end="url(#filled-head)" stroke="none" stroke-width="2" class="messageLine0" y2="276" x2="1030" y1="276" x1="315"/><text style="font-size: 16px; font-weight: 400;" dy="1em" class="messageText" alignment-baseline="middle" dominant-baseline="middle" text-anchor="middle" y="316" x="1053">set up logging &amp; reporting service</text><line style="fill: none;" marker-end="url(#filled-head)" stroke="none" stroke-width="2" class="messageLine0" y2="347" x2="1391" y1="347" x1="715"/><text style="font-size: 16px; font-weight: 400;" dy="1em" class="messageText" alignment-baseline="middle" dominant-baseline="middle" text-anchor="middle" y="362" x="1153">configure audit rules</text><line style="fill: none;" marker-end="url(#filled-head)" stroke="none" stroke-width="2" class="messageLine0" y2="393" x2="1591" y1="393" x1="715"/><text style="font-size: 16px; font-weight: 400;" dy="1em" class="messageText" alignment-baseline="middle" dominant-baseline="middle" text-anchor="middle" y="463" x="1153">monitor</text><line style="fill: none;" marker-end="url(#filled-head)" stroke="none" stroke-width="2" class="messageLine0" y2="494" x2="1591" y1="494" x1="715"/><text style="font-size: 16px; font-weight: 400;" dy="1em" class="messageText" alignment-baseline="middle" dominant-baseline="middle" text-anchor="middle" y="509" x="953">monitor</text><line style="fill: none;" marker-end="url(#filled-head)" stroke="none" stroke-width="2" class="messageLine0" y2="540" x2="1591" y1="540" x1="315"/><text style="font-size: 16px; font-weight: 400;" dy="1em" class="messageText" alignment-baseline="middle" dominant-baseline="middle" text-anchor="middle" y="580" x="1153">govt app token</text><line style="fill: none;" marker-end="url(#filled-head)" stroke="none" stroke-width="2" class="messageLine0" y2="611" x2="1791" y1="611" x1="515"/><text style="font-size: 16px; font-weight: 400;" dy="1em" class="messageText" alignment-baseline="middle" dominant-baseline="middle" text-anchor="middle" y="626" x="937">check govt app token validity</text><line style="fill: none;" marker-end="url(#filled-head)" stroke="none" stroke-width="2" class="messageLine0" y2="657" x2="79" y1="657" x1="1794"/><text style="font-size: 16px; font-weight: 400;" dy="1em" class="messageText" alignment-baseline="middle" dominant-baseline="middle" text-anchor="middle" y="672" x="934">return token validity</text><line style="stroke-dasharray: 3, 3; fill: none;" marker-end="url(#filled-head)" stroke="none" stroke-width="2" class="messageLine1" y2="703" x2="1791" y1="703" x1="76"/><text style="font-size: 16px; font-weight: 400;" dy="1em" class="messageText" alignment-baseline="middle" dominant-baseline="middle" text-anchor="middle" y="718" x="773">request candidate list</text><line style="fill: none;" marker-end="url(#filled-head)" stroke="none" stroke-width="2" class="messageLine0" y2="749" x2="1030" y1="749" x1="515"/><text style="font-size: 16px; font-weight: 400;" dy="1em" class="messageText" alignment-baseline="middle" dominant-baseline="middle" text-anchor="middle" y="764" x="776">return candidate list</text><line style="stroke-dasharray: 3, 3; fill: none;" marker-end="url(#filled-head)" stroke="none" stroke-width="2" class="messageLine1" y2="795" x2="518" y1="795" x1="1033"/><text style="font-size: 16px; font-weight: 400;" dy="1em" class="messageText" alignment-baseline="middle" dominant-baseline="middle" text-anchor="middle" y="810" x="773">vote for a candidate</text><line style="fill: none;" marker-end="url(#filled-head)" stroke="none" stroke-width="2" class="messageLine0" y2="841" x2="1030" y1="841" x1="515"/><text style="font-size: 16px; font-weight: 400;" dy="1em" class="messageText" alignment-baseline="middle" dominant-baseline="middle" text-anchor="middle" y="901" x="776">return "already voted" error</text><line style="stroke-dasharray: 3, 3; fill: none;" marker-end="url(#filled-head)" stroke="none" stroke-width="2" class="messageLine1" y2="932" x2="518" y1="932" x1="1033"/><text style="font-size: 16px; font-weight: 400;" dy="1em" class="messageText" alignment-baseline="middle" dominant-baseline="middle" text-anchor="middle" y="992" x="776">return success</text><line style="stroke-dasharray: 3, 3; fill: none;" marker-end="url(#filled-head)" stroke="none" stroke-width="2" class="messageLine1" y2="1023" x2="518" y1="1023" x1="1033"/><text style="font-size: 16px; font-weight: 400;" dy="1em" class="messageText" alignment-baseline="middle" dominant-baseline="middle" text-anchor="middle" y="1048" x="776">return current voting status</text><line style="stroke-dasharray: 3, 3; fill: none;" marker-end="url(#filled-head)" stroke="none" stroke-width="2" class="messageLine1" y2="1079" x2="518" y1="1079" x1="1033"/><text style="font-size: 16px; font-weight: 400;" dy="1em" class="messageText" alignment-baseline="middle" dominant-baseline="middle" text-anchor="middle" y="1184" x="1035">calculate voting results</text><path style="stroke-dasharray: 3, 3; fill: none;" marker-end="url(#filled-head)" stroke="none" stroke-width="2" class="messageLine1" d="M 1035,1215 C 1095,1205 1095,1245 1035,1235"/><text style="font-size: 16px; font-weight: 400;" dy="1em" class="messageText" alignment-baseline="middle" dominant-baseline="middle" text-anchor="middle" y="1285" x="1600">create audit summary</text><path style="stroke-dasharray: 3, 3; fill: none;" marker-end="url(#filled-head)" stroke="none" stroke-width="2" class="messageLine1" d="M 1600,1316 C 1660,1306 1660,1346 1600,1336"/><text style="font-size: 16px; font-weight: 400;" dy="1em" class="messageText" alignment-baseline="middle" dominant-baseline="middle" text-anchor="middle" y="1466" x="1253">request past &amp; current votes</text><line style="fill: none;" marker-end="url(#filled-head)" stroke="none" stroke-width="2" class="messageLine0" y2="1497" x2="1991" y1="1497" x1="515"/><text style="font-size: 16px; font-weight: 400;" dy="1em" class="messageText" alignment-baseline="middle" dominant-baseline="middle" text-anchor="middle" y="1512" x="1256">return past &amp; current votes</text><line style="stroke-dasharray: 3, 3; fill: none;" marker-end="url(#filled-head)" stroke="none" stroke-width="2" class="messageLine1" y2="1543" x2="518" y1="1543" x1="1994"/><text style="font-size: 16px; font-weight: 400;" dy="1em" class="messageText" alignment-baseline="middle" dominant-baseline="middle" text-anchor="middle" y="1583" x="1216">request full election data from the blockchain</text><line style="fill: none;" marker-end="url(#filled-head)" stroke="none" stroke-width="2" class="messageLine0" y2="1614" x2="1038" y1="1614" x1="1394"/><text style="font-size: 16px; font-weight: 400;" dy="1em" class="messageText" alignment-baseline="middle" dominant-baseline="middle" text-anchor="middle" y="1629" x="1213">return full election data</text><line style="stroke-dasharray: 3, 3; fill: none;" marker-end="url(#filled-head)" stroke="none" stroke-width="2" class="messageLine1" y2="1660" x2="1391" y1="1660" x1="1035"/><text style="font-size: 16px; font-weight: 400;" dy="1em" class="messageText" alignment-baseline="middle" dominant-baseline="middle" text-anchor="middle" y="1675" x="1396">perform analysis for an election report</text><path style="stroke-dasharray: 3, 3; fill: none;" marker-end="url(#filled-head)" stroke="none" stroke-width="2" class="messageLine1" d="M 1396,1706 C 1456,1696 1456,1736 1396,1726"/><text style="font-size: 16px; font-weight: 400;" dy="1em" class="messageText" alignment-baseline="middle" dominant-baseline="middle" text-anchor="middle" y="1751" x="853">request election reports</text><line style="fill: none;" marker-end="url(#filled-head)" stroke="none" stroke-width="2" class="messageLine0" y2="1782" x2="1391" y1="1782" x1="315"/><text style="font-size: 16px; font-weight: 400;" dy="1em" class="messageText" alignment-baseline="middle" dominant-baseline="middle" text-anchor="middle" y="1797" x="856">return election reports</text><line style="stroke-dasharray: 3, 3; fill: none;" marker-end="url(#filled-head)" stroke="none" stroke-width="2" class="messageLine1" y2="1828" x2="318" y1="1828" x1="1394"/><text style="font-size: 16px; font-weight: 400;" dy="1em" class="messageText" alignment-baseline="middle" dominant-baseline="middle" text-anchor="middle" y="1843" x="951">request audit summary</text><line style="fill: none;" marker-end="url(#filled-head)" stroke="none" stroke-width="2" class="messageLine0" y2="1874" x2="1587" y1="1874" x1="315"/><text style="font-size: 16px; font-weight: 400;" dy="1em" class="messageText" alignment-baseline="middle" dominant-baseline="middle" text-anchor="middle" y="1889" x="954">return audit summary</text><line style="stroke-dasharray: 3, 3; fill: none;" marker-end="url(#filled-head)" stroke="none" stroke-width="2" class="messageLine1" y2="1920" x2="318" y1="1920" x1="1590"/><g class="actor-man"><line y2="1995" x2="314" y1="1975" x1="314" id="actor-man-torso8"/><line y2="1983" x2="332" y1="1983" x1="296" id="actor-man-arms8"/><line y2="1995" x2="314" y1="2010" x1="296"/><line y2="2010" x2="330" y1="1995" x1="314"/><circle height="65" width="150" r="15" cy="1960" cx="314"/><text style="text-anchor: middle; font-size: 16px; font-weight: 400;" class="actor" alignment-baseline="central" dominant-baseline="central" y="2017.5" x="314"><tspan dy="0" x="314">Election Official</tspan></text></g><g class="actor-man"><line y2="1995" x2="514" y1="1975" x1="514" id="actor-man-torso8"/><line y2="1983" x2="532" y1="1983" x1="496" id="actor-man-arms8"/><line y2="1995" x2="514" y1="2010" x1="496"/><line y2="2010" x2="530" y1="1995" x1="514"/><circle height="65" width="150" r="15" cy="1960" cx="514"/><text style="text-anchor: middle; font-size: 16px; font-weight: 400;" class="actor" alignment-baseline="central" dominant-baseline="central" y="2017.5" x="514"><tspan dy="0" x="514">Voter</tspan></text></g><g class="actor-man"><line y2="1995" x2="714" y1="1975" x1="714" id="actor-man-torso8"/><line y2="1983" x2="732" y1="1983" x1="696" id="actor-man-arms8"/><line y2="1995" x2="714" y1="2010" x1="696"/><line y2="2010" x2="730" y1="1995" x1="714"/><circle height="65" width="150" r="15" cy="1960" cx="714"/><text style="text-anchor: middle; font-size: 16px; font-weight: 400;" class="actor" alignment-baseline="central" dominant-baseline="central" y="2017.5" x="714"><tspan dy="0" x="714">System Admin</tspan></text></g><text y="-25" x="937.5">E-Voting setup, user voting and election summary</text></svg>